<svg xmlns="http://www.w3.org/2000/svg" viewBox="0.43 -53.14 452.38 67.03" width="452.38" height="67.03" aria-labelledby="SvgTitle-8e6e27cd-cb74-4b3c-94af-05b8fc4fdc11"><title id="SvgTitle-8e6e27cd-cb74-4b3c-94af-05b8fc4fdc11">Tip with jami</title><path d="M29.81 0L16.56 0L16.56-39.96L0.43-39.96L0.43-50.76L45.94-50.76L45.94-39.96L29.81-39.96L29.81 0ZM63.22-41.54L49.75-41.54L49.75-53.14L63.22-53.14L63.22-41.54ZM62.93 0L50.11 0L50.11-35.42L62.93-35.42L62.93 0ZM83.16 12.96L70.34 12.96L70.34-35.42L82.8-35.42L82.8-29.02L82.15-29.02Q83.16-32.26 86.36-34.24Q89.57-36.22 93.67-36.22L93.67-36.22Q98.28-36.22 101.77-33.98Q105.26-31.75 107.21-27.65Q109.15-23.54 109.15-17.71L109.15-17.71Q109.15-12.02 107.21-7.85Q105.26-3.67 101.77-1.44Q98.28 0.79 93.67 0.79L93.67 0.79Q89.71 0.79 86.54-1.08Q83.38-2.95 82.3-5.98L82.3-5.98L83.16-5.98L83.16 12.96ZM89.64-8.64L89.64-8.64Q92.52-8.64 94.39-10.8Q96.26-12.96 96.26-17.71L96.26-17.71Q96.26-22.54 94.39-24.66Q92.52-26.78 89.64-26.78L89.64-26.78Q86.69-26.78 84.82-24.66Q82.94-22.54 82.94-17.71L82.94-17.71Q82.94-12.96 84.82-10.8Q86.69-8.64 89.64-8.64ZM156.31 0L145.73 0L130.82-35.42L143.78-35.42L152.42-12.82L150.91-12.82L159.41-35.42L167.4-35.42L175.9-12.82L174.6-12.82L183.1-35.42L195.26-35.42L180.5 0L169.92 0L160.2-24.12L165.46-24.12L156.31 0ZM211.18-41.54L197.71-41.54L197.71-53.14L211.18-53.14L211.18-41.54ZM210.89 0L198.07 0L198.07-35.42L210.89-35.42L210.89 0ZM236.88 0.79L236.88 0.79Q228.82 0.79 224.93-2.95Q221.04-6.7 221.04-14.26L221.04-14.26L221.04-25.99L214.42-25.99L214.42-35.42L221.04-35.42L221.04-45.72L233.86-45.72L233.86-35.42L243.94-35.42L243.94-25.99L233.86-25.99L233.86-14.69Q233.86-12.02 235.12-10.76Q236.38-9.5 239.11-9.5L239.11-9.5Q239.98-9.5 241.02-9.72Q242.06-9.94 243.36-10.22L243.36-10.22L245.09-1.01Q243.43-0.14 241.24 0.32Q239.04 0.79 236.88 0.79ZM261.79 0L248.98 0L248.98-50.76L261.79-50.76L261.79-29.23L260.64-29.23Q262.37-32.62 265.57-34.42Q268.78-36.22 272.88-36.22L272.88-36.22Q277.13-36.22 279.86-34.6Q282.6-32.98 283.97-29.56Q285.34-26.14 285.34-20.95L285.34-20.95L285.34 0L272.52 0L272.52-20.45Q272.52-22.61 272.02-23.94Q271.51-25.27 270.54-25.85Q269.57-26.42 268.13-26.42L268.13-26.42Q266.18-26.42 264.74-25.6Q263.3-24.77 262.55-23.26Q261.79-21.74 261.79-19.66L261.79-19.66L261.79 0ZM326.66-41.54L313.13-41.54L313.13-53.14L326.66-53.14L326.66-41.54ZM309.82 13.68L306.65 13.9L305.78 4.9L309.31 4.46Q311.54 4.18 312.55 3.1Q313.56 2.02 313.56-0.22L313.56-0.22L313.56-35.42L326.38-35.42L326.38-2.02Q326.38 2.02 325.51 4.86Q324.65 7.7 322.74 9.54Q320.83 11.38 317.66 12.35Q314.5 13.32 309.82 13.68L309.82 13.68ZM346.18 0.79L346.18 0.79Q342.07 0.79 338.94-0.72Q335.81-2.23 334.04-4.86Q332.28-7.49 332.28-10.87L332.28-10.87Q332.28-14.76 334.3-16.99Q336.31-19.22 340.78-20.2Q345.24-21.17 352.66-21.17L352.66-21.17L356.62-21.17L356.62-15.12L352.66-15.12Q350.57-15.12 349.02-14.9Q347.47-14.69 346.46-14.22Q345.46-13.75 344.95-13.03Q344.45-12.31 344.45-11.38L344.45-11.38Q344.45-9.72 345.64-8.64Q346.82-7.56 349.06-7.56L349.06-7.56Q350.86-7.56 352.26-8.35Q353.66-9.14 354.53-10.55Q355.39-11.95 355.39-13.82L355.39-13.82L355.39-22.18Q355.39-24.77 354.06-25.85Q352.73-26.93 349.49-26.93L349.49-26.93Q346.75-26.93 343.44-26.06Q340.13-25.2 336.96-23.4L336.96-23.4L333.72-31.82Q335.59-33.12 338.36-34.13Q341.14-35.14 344.27-35.68Q347.4-36.22 350.06-36.22L350.06-36.22Q355.97-36.22 359.82-34.52Q363.67-32.83 365.58-29.34Q367.49-25.85 367.49-20.38L367.49-20.38L367.49 0L355.54 0L355.54-6.7L355.97-6.7Q355.61-4.39 354.31-2.74Q353.02-1.08 350.93-0.14Q348.84 0.79 346.18 0.79ZM387.72 0L374.9 0L374.9-35.42L387.36-35.42L387.36-29.23L386.57-29.23Q387.58-31.39 389.23-32.94Q390.89-34.49 393.16-35.35Q395.42-36.22 398.16-36.22L398.16-36.22Q402.05-36.22 404.82-34.34Q407.59-32.47 408.82-28.66L408.82-28.66L407.81-28.66Q409.46-32.18 412.78-34.2Q416.09-36.22 420.12-36.22L420.12-36.22Q424.3-36.22 426.96-34.6Q429.62-32.98 430.96-29.56Q432.29-26.14 432.29-20.95L432.29-20.95L432.29 0L419.47 0L419.47-20.59Q419.47-23.69 418.54-25.06Q417.6-26.42 415.44-26.42L415.44-26.42Q413.71-26.42 412.45-25.6Q411.19-24.77 410.58-23.15Q409.97-21.53 409.97-19.22L409.97-19.22L409.97 0L397.15 0L397.15-20.59Q397.15-23.69 396.22-25.06Q395.28-26.42 393.12-26.42L393.12-26.42Q391.39-26.42 390.17-25.6Q388.94-24.77 388.33-23.15Q387.72-21.53 387.72-19.22L387.72-19.22L387.72 0ZM452.81-41.54L439.34-41.54L439.34-53.14L452.81-53.14L452.81-41.54ZM452.52 0L439.7 0L439.7-35.42L452.52-35.42L452.52 0Z" fill="#d13280"></path></svg>